<?xml version="1.0" standalone="no"?><!DOCTYPE svg PUBLIC "-//W3C//DTD SVG 1.1//EN" "http://www.w3.org/Graphics/SVG/1.1/DTD/svg11.dtd"><svg width="200" height="200" viewBox="0 0 200 200" version="1.1" xmlns="http://www.w3.org/2000/svg" xmlns:xlink="http://www.w3.org/1999/xlink"><defs><style type="text/css"><![CDATA[
@font-face { font-family: ifont; src: url("//at.alicdn.com/t/font_1442373896_4754455.eot?#iefix") format("embedded-opentype"), url("//at.alicdn.com/t/font_1442373896_4754455.woff") format("woff"), url("//at.alicdn.com/t/font_1442373896_4754455.ttf") format("truetype"), url("//at.alicdn.com/t/font_1442373896_4754455.svg#ifont") format("svg"); }

]]></style></defs><g class="transform-group"><g transform="scale(0.1953125, 0.1953125)"><path d="M448 704l128 0 0 128-128 0zM704 256c35.36 0 64 28.64 64 64l0 192-192 128-128 0 0-64 192-128 0-64-320 0 0-128 384 0zM512 96c-111.104 0-215.584 43.264-294.144 121.856s-121.856 183.04-121.856 294.144c0 111.104 43.264 215.584 121.856 294.144s183.04 121.856 294.144 121.856c111.104 0 215.584-43.264 294.144-121.856s121.856-183.04 121.856-294.144c0-111.104-43.264-215.584-121.856-294.144s-183.04-121.856-294.144-121.856zM512 0l0 0c282.784 0 512 229.216 512 512s-229.216 512-512 512c-282.784 0-512-229.216-512-512s229.216-512 512-512z" fill="#272636"></path></g></g></svg>